PathFileType	4	(X/Y/Z)	C:/Users/opensim2020/Desktop/walking_exp_matlab/subject06_walking20_straight_01.trc																																																																																																																															
DataRate	CameraRate	NumFrames	NumMarkers	Units	OrigDataRate	OrigDataStartFrame	OrigNumFrames																																																																																																																											
100	100	5	43	mm	100	748	127																																																																																																																											
Frame#	Time	LFHD			RFHD			LBHD			RBHD			C7			T10			CLAV			STRN			RBAK			LSHO			LUPA			LELB			LFRM			LWRA			LWRB			LFIN			RSHO			RUPA			RELB			RFRM			RWRA			RWRB			RFIN			LASI			RASI			LPSI			RPSI			LTHI			LKNE			LTIB			LANK			LHEE			LTOE			RTHI			RKNE			RTIB			RANK			RHEE			RTOE			*39			*40			*41			*42		
		X1	Y1	Z1	X2	Y2	Z2	X3	Y3	Z3	X4	Y4	Z4	X5	Y5	Z5	X6	Y6	Z6	X7	Y7	Z7	X8	Y8	Z8	X9	Y9	Z9	X10	Y10	Z10	X11	Y11	Z11	X12	Y12	Z12	X13	Y13	Z13	X14	Y14	Z14	X15	Y15	Z15	X16	Y16	Z16	X17	Y17	Z17	X18	Y18	Z18	X19	Y19	Z19	X20	Y20	Z20	X21	Y21	Z21	X22	Y22	Z22	X23	Y23	Z23	X24	Y24	Z24	X25	Y25	Z25	X26	Y26	Z26	X27	Y27	Z27	X28	Y28	Z28	X29	Y29	Z29	X30	Y30	Z30	X31	Y31	Z31	X32	Y32	Z32	X33	Y33	Z33	X34	Y34	Z34	X35	Y35	Z35	X36	Y36	Z36	X37	Y37	Z37	X38	Y38	Z38	X39	Y39	Z39	X40	Y40	Z40	X41	Y41	Z41	X42	Y42	Z42	X43	Y43	Z43
																																																																																																																																		
16	0.15	-709.72278	1659.30188	-1056.51331	-714.78839	1645.37805	-926.55908	-845.69647	1609.89087	-1062.99316	-848.03497	1601.07434	-933.58209	-853.72314	1454.80994	-1005.77106	-924.62189	1134.84949	-989.28534	-751.87616	1366.82385	-1006.12238	-732.12085	1188.12939	-1011.59607	-939.97705	1296.10242	-919.05103	-805.13824	1402.05774	-1166.54175	-827.37885	1200.24634	-1235.99121	-838.60107	1088.08289	-1246.42712	-808.69824	940.4538	-1270.00085	-735.94354	832.1123	-1232.34827	-799.26465	820.96594	-1264.10059	-748.66998	745.71515	-1269.59375	-788.23413	1406.93848	-845.02466	-842.06311	1217.28809	-749.37677	-844.36621	1095.16858	-735.30267	-823.34338	977.15076	-721.12366	-758.01996	843.27643	-762.56134	-806.97192	840.9035	-716.4549	-765.46912	768.0506	-719.57471	-775.81732	956.49774	-1108.60229	-759.06061	961.27606	-890.04816	-928.3363	996.7583	-1071.59253	-908.31488	1001.9104	-905.05756	-798.9339	651.97485	-1175.52246	-751.26276	495.25296	-1157.72839	-889.50732	287.84854	-1140.82507	-970.42487	136.58664	-1099.04224	-1005.06342	135.04715	-1046.16333	-856.61273	54.89779	-1124.00439	-812.42145	630.02454	-841.43231	-806.14063	506.38876	-874.0119	-882.87585	248.91753	-870.64307	-932.34485	68.40132	-913.97156	-980.34125	44.89429	-952.66455	-784.44971	33.18704	-926.80847	-811.50073	1699.76306	-1000.76776	NaN	NaN	NaN	NaN	NaN	NaN	NaN	NaN	NaN
17	0.16	-697.73804	1658.51917	-1057.42798	-702.0755	1644.90613	-927.30139	-833.83337	1609.45239	-1062.93152	-835.44537	1601.00098	-933.50873	-841.92322	1454.39355	-1005.33575	-912.51129	1134.29614	-988.4624	-740.18787	1366.27368	-1006.18225	-720.35162	1187.67944	-1011.40607	-927.77625	1295.60144	-917.70746	-794.31079	1401.68445	-1166.4021	-819.19196	1199.82312	-1235.68994	-832.3349	1088.11877	-1246.92273	-806.56268	939.75934	-1271.41858	-737.24091	828.73334	-1234.77441	-800.94183	820.13147	-1266.71802	-753.3446	742.96082	-1272.36633	-775.75262	1406.76416	-844.97125	-827.82263	1217.19092	-748.31311	-828.93909	1095.19873	-733.86426	-804.96857	977.81219	-720.06903	-736.41754	846.04645	-762.53674	-784.88715	842.1723	-716.0838	-741.33545	770.41699	-719.76129	-762.85181	956.67743	-1108.07825	-747.1944	960.54657	-889.57001	-915.78052	996.3291	-1071.71094	-896.3703	1001.18976	-905.17267	-780.7934	653.28046	-1176.22473	-730.34814	497.77802	-1157.70068	-858.71637	283.56125	-1140.3324	-931.70074	127.92335	-1098.69751	-965.94006	124.39777	-1045.46838	-814.12433	52.61837	-1124.56909	-805.15741	629.05518	-841.65076	-801.08575	505.20978	-873.42371	-880.90466	248.44157	-870.81866	-932.15759	68.49149	-914.22852	-980.45953	45.23496	-952.89258	-784.4231	33.03915	-926.73749	-799.04456	1699.39709	-1001.06335	NaN	NaN	NaN	NaN	NaN	NaN	NaN	NaN	NaN
18	0.17	-685.61938	1657.52429	-1058.13843	-689.30457	1644.24805	-928.19879	-821.91986	1608.75537	-1062.8905	-822.92303	1600.53955	-933.37775	-829.93713	1453.71045	-1004.92633	-900.42523	1133.4541	-987.71436	-728.3056	1365.53003	-1006.45709	-708.612	1186.96362	-1011.20587	-915.49426	1294.81689	-916.56628	-783.49451	1400.646	-1166.24072	-811.034	1199.44934	-1235.94543	-825.93494	1087.92896	-1247.35718	-804.32263	939.08264	-1272.85583	-738.61023	825.50067	-1237.02551	-802.38623	819.38568	-1269.28625	-757.63153	740.36072	-1275.07312	-763.18323	1406.2384	-845.0036	-813.69537	1216.84998	-747.33887	-813.64587	1095.04004	-732.46844	-786.73602	978.38312	-719.02344	-714.83044	848.83386	-762.65405	-762.78436	843.39349	-715.85724	-717.26093	773.08936	-720.04303	-749.81091	956.54218	-1107.49219	-735.16028	959.86316	-888.93439	-903.11365	995.61847	-1071.94116	-884.4696	1000.289	-905.2193	-764.10547	654.31335	-1176.83691	-710.00519	499.96637	-1157.69836	-828.87354	279.24707	-1140.28467	-892.34631	119.63452	-1098.58618	-926.51038	114.27504	-1044.97009	-770.91809	50.95023	-1125.27002	-797.71307	627.97894	-841.92163	-796.18835	503.87964	-873.16321	-879.28241	248.02896	-870.93066	-932.06415	68.60039	-914.44073	-980.5293	45.51426	-953.16382	-784.39551	32.89334	-926.61169	-786.61322	1698.7312	-1001.38501	NaN	NaN	NaN	NaN	NaN	NaN	NaN	NaN	NaN
19	0.18	-673.60126	1656.32007	-1058.95837	-676.49536	1643.22595	-928.99213	-809.95294	1607.82458	-1062.8335	-810.1955	1599.79797	-933.36249	-818.11407	1452.80933	-1004.60846	-888.25525	1132.39685	-987.1109	-716.56219	1364.53149	-1006.43787	-696.77106	1186.07019	-1011.14862	-903.22809	1293.83911	-915.46661	-772.48486	1399.76282	-1166.28564	-802.94318	1198.63831	-1236.30933	-819.50269	1087.6145	-1247.77148	-801.9671	938.43695	-1274.18042	-739.47235	822.60321	-1239.28003	-803.396	818.66455	-1271.6687	-761.65247	738.10138	-1277.63318	-750.57672	1405.51038	-845.05853	-799.49915	1216.29163	-746.49164	-798.39429	1094.64526	-731.0387	-768.55133	978.8324	-718.0589	-693.40454	851.66357	-762.76843	-740.75269	844.58789	-715.71613	-693.31531	775.70105	-720.33917	-736.80231	955.96564	-1106.97253	-723.22815	958.87024	-888.20703	-890.34375	994.57886	-1072.19763	-872.71161	999.22437	-905.19592	-745.0816	656.03973	-1177.77185	-690.14142	501.7547	-1157.7439	-798.41895	274.85089	-1140.21094	-852.44092	111.75146	-1098.57153	-885.79169	104.29848	-1044.95935	-727.54358	49.7723	-1125.73389	-790.26862	626.78082	-842.1449	-791.48346	502.28189	-872.73737	-877.51288	247.64203	-871.01123	-931.93866	68.73312	-914.63794	-980.44556	45.70264	-953.51917	-784.32678	32.72161	-926.55164	-774.16602	1697.78271	-1001.74036	NaN	NaN	NaN	NaN	NaN	NaN	NaN	NaN	NaN
20	0.19	-661.52814	1654.88135	-1059.80188	-663.79486	1641.9043	-929.67969	-797.9964	1606.61292	-1062.81555	-797.48969	1598.79944	-933.34357	-806.14313	1451.69373	-1004.37384	-875.99316	1131.05396	-986.62823	-704.69513	1363.24353	-1006.62445	-684.87347	1184.86877	-1011.22229	-890.84808	1292.68896	-914.54333	-761.49213	1398.39807	-1166.21057	-794.59863	1197.71997	-1236.31873	-813.0423	1087.21106	-1247.91675	-799.48938	937.77087	-1275.5321	-740.42712	819.7384	-1241.35571	-804.22467	818.06641	-1273.98584	-765.37708	735.94775	-1279.97034	-737.89404	1404.47595	-845.22357	-785.61151	1215.45667	-745.53369	-783.20081	1094.0769	-729.62762	-750.4837	979.13184	-717.18372	-672.01367	854.64758	-762.80219	-718.99091	845.78015	-715.80383	-669.4823	778.51965	-720.83307	-723.45264	955.22308	-1106.62769	-711.29675	957.5639	-887.62402	-877.40552	993.26489	-1072.47046	-860.64709	997.84448	-905.3775	-728.49152	656.41437	-1178.23364	-670.76367	503.12177	-1157.88025	-767.62292	270.40189	-1140.31482	-812.24139	104.39943	-1098.76453	-845.87592	95.54831	-1045.48181	-684.10864	48.83163	-1125.79358	-782.57147	625.53833	-842.46527	-786.59705	500.90378	-872.07355	-875.7511	247.27188	-870.94409	-931.6911	68.85722	-914.85913	-980.42084	46.10001	-953.7597	-784.24896	32.55259	-926.49109	-761.66125	1696.61011	-1002.05658	NaN	NaN	NaN	NaN	NaN	NaN	NaN	NaN	NaN
